<svg width="222" height="184" viewBox="0 0 222 184" fill="none" xmlns="http://www.w3.org/2000/svg">
<path d="M1 1L15.3774 42.2969C21.0787 58.673 34.5678 71.1297 51.3451 75.5118L63.4026 78.6611C80.865 83.2222 94.7134 96.5117 99.9897 113.771L109.751 145.702C116.435 167.566 136.616 182.5 159.479 182.5H188" stroke="white" stroke-width="2"/>
<path d="M17 1L31.3774 42.2969C37.0787 58.673 50.5678 71.1297 67.3451 75.5118L79.4026 78.6611C96.865 83.2222 110.713 96.5117 115.99 113.771L125.751 145.702C132.435 167.566 152.616 182.5 175.479 182.5H204" stroke="white" stroke-width="2"/>
<path d="M35 1L49.3774 42.2969C55.0787 58.673 68.5678 71.1297 85.3451 75.5118L97.4026 78.6611C114.865 83.2222 128.713 96.5117 133.99 113.771L143.751 145.702C150.435 167.566 170.616 182.5 193.479 182.5H222" stroke="white" stroke-width="2"/>
</svg>
