<svg width="375" height="812" viewBox="0 0 375 812" fill="none" xmlns="http://www.w3.org/2000/svg">
<g clip-path="url(#clip0_4_223)">
<path d="M350.665 27.1527L514.29 68.5628L539.042 38.5304L589.472 59.1953L623.627 -60.8537L622.261 -61.2558C622.904 -65.1555 632.106 -93.7405 637.33 -109.822C637.731 -111.068 656.658 -105.199 657.019 -106.284C658.466 -110.787 659.912 -115.049 659.912 -115.049L637.008 -121.964L591.642 -136.558H407.202L404.952 -130.889C404.952 -130.889 449.475 -115.813 498.217 -99.6505L402.501 -129.241L379.034 -30.7008L347.933 -33.5552L345.642 -16.549L361.072 -6.90001L350.665 27.1527Z" fill="#F1F6FB"/>
<path d="M361.394 219.086C361.394 219.086 285.971 200.392 285.77 201.316C285.529 202.241 266.603 258.285 266.603 258.285C268.652 258.526 338.972 285.463 338.972 285.463L361.394 219.086Z" fill="#F1F6FB"/>
<path d="M95.5842 329.205C92.8518 329.486 91.0435 320.843 82.3238 320.883C65.1658 321.003 36.4752 325.546 22.9738 324.421C2.56087 322.732 -10.8602 315.777 -10.8602 315.777L-40.917 399.361C-40.917 399.361 -25.2055 405.271 -7.32411 403.1C10.1152 400.969 34.2652 401.411 37.8012 402.457C40.5739 397.873 57.1292 370.253 61.8306 362.413C66.9338 353.85 103.661 328.32 95.5842 329.205Z" fill="#F1F6FB"/>
<path d="M37.8414 402.416C37.6003 402.818 37.4396 403.06 37.4396 403.06C38.4442 402.818 38.4843 402.617 37.8414 402.416Z" fill="#F1F6FB"/>
<path d="M209.462 458.38L179.165 433.816L173.82 438.64C165.221 446.399 148.545 459.546 140.549 461.717L129.378 464.773L135.767 474.462C135.968 474.783 140.991 482.382 147.058 489.86C156.301 501.278 162.971 506.303 169.159 506.303C170.204 506.303 171.208 506.142 172.253 505.861C175.95 504.856 181.013 502.162 194.072 482.985C200.341 473.778 205.605 464.974 205.806 464.612L209.462 458.38Z" fill="#F1F6FB"/>
<path d="M82.6453 853.103L115.193 885.346L185.996 813.341L155.858 777.76L82.6453 853.103Z" fill="#F1F6FB"/>
<path d="M185.714 308.54C182.299 308.058 128.293 287.795 128.293 287.795C128.293 287.795 118.77 315.093 143 339.899L185.714 308.54Z" fill="#F1F6FB"/>
<path d="M84.4535 171.203C85.7394 169.917 108.402 132.326 108.402 132.326C108.402 132.326 90.8828 117.29 68.4607 103.54L46.5611 101.128L27.8359 148.971C27.8359 148.93 83.1677 172.49 84.4535 171.203Z" fill="#F1F6FB"/>
<path d="M385.423 398.517L357.175 457.013L336.521 461.074V481.859L421.307 477.879L422.673 471.527C422.713 471.406 425.325 458.943 427.896 446.641C429.383 439.404 430.549 433.615 431.352 429.433C431.834 426.86 432.196 424.971 432.437 423.564C432.598 422.719 432.678 422.076 432.759 421.553C433.442 416.086 430.107 412.95 427.093 411.945C426.49 411.744 398.161 402.617 392.495 400.768L385.423 398.517Z" fill="#F1F6FB"/>
<path d="M36.9574 528.536C34.3455 525.44 30.7291 521.179 26.1482 515.912C18.3929 506.946 10.5171 497.981 10.4367 497.901L5.65496 492.473L-19.2986 508.354L-59.4413 543.974L-39.3499 583.495L-31.9964 580.118C-5.79715 568.057 33.6624 549.965 38.0424 547.995L42.0205 546.789L43.3063 542.366C44.552 538.064 42.141 535.009 40.5739 532.999C39.73 531.913 38.5647 530.466 36.9574 528.536Z" fill="#F1F6FB"/>
<path d="M253.623 1068.76C261.499 1063.77 269.496 1058.63 277.572 1053.44C415.962 964.548 518.067 891.94 581.033 837.704C673.012 758.462 751.208 645.891 820.202 546.547C864.162 483.226 905.711 423.403 942.197 385.893C1001.83 324.541 1053.54 261.099 1095.94 197.416C1138.01 134.176 1169.79 72.2615 1190.49 13.3628C1211.06 -45.2948 1222.75 -99.9722 1229.06 -136.558H1190.29C1179.68 -77.4981 1165.09 -29.6554 1154.44 0.618134C1134.83 56.5418 1104.46 115.561 1064.15 176.149C1023.09 237.902 972.816 299.454 914.832 359.157C876.177 398.959 833.743 460.029 788.859 524.677C721.151 622.131 644.442 732.611 556.16 808.677C495.404 860.983 392.013 934.475 257.079 1021.11C230.438 1038.2 205.002 1054.28 181.897 1068.76H253.623Z" fill="#F1F6FB"/>
<path d="M24.9025 84.2021C24.8222 83.6795 24.6614 83.1971 24.3802 82.7548C11.4011 62.1704 -8.5698 29.1629 -10.4584 22.5695C-12.1461 16.6595 -16.6466 12.6793 -24.2813 10.4279C-30.5498 8.57853 -39.0686 7.73424 -51.9271 7.73424C-72.782 7.73424 -108.103 4.2365 -134.222 0.979982C-148.687 -0.829195 -175.851 -15.6644 -191 -24.5093V-16.1469C-174.967 -6.9402 -149.772 6.3271 -135.106 8.17648C-122.327 9.78464 -78.5683 15.0112 -51.8869 15.0112C-29.3041 15.0112 -19.3388 17.7852 -17.3698 24.6199C-14.6776 33.9874 12.8477 78.0108 17.8705 85.9309C17.9911 88.0215 18.0313 94.0923 14.6559 97.9117C12.5262 100.324 9.43212 101.49 5.13255 101.49C-1.57798 101.49 -7.00266 100.766 -11.3022 100.203C-19.2584 99.158 -25.527 98.3137 -30.2284 104.224C-30.8713 105.028 -34.0859 107.922 -49.3956 112.345C-57.9947 114.838 -66.0313 116.526 -66.1117 116.526C-66.1518 116.526 -66.1518 116.526 -66.192 116.526C-66.2724 116.526 -74.8715 118.335 -96.0077 113.873C-126.587 107.48 -162.591 92.5646 -190.879 79.3375V87.3381C-120.881 119.783 -85.6004 124.125 -71.7373 124.125C-67.3171 124.125 -65.1071 123.682 -64.5847 123.562C-63.9016 123.401 -56.0258 121.753 -47.3864 119.26C-30.59 114.395 -26.2904 110.898 -24.5224 108.686C-22.5534 106.234 -20.4237 106.234 -12.1863 107.319C-7.64558 107.922 -1.97981 108.686 5.21292 108.686C11.6422 108.686 16.7052 106.636 20.2011 102.616C26.3491 95.4593 24.9829 84.6444 24.9025 84.2021Z" fill="white"/>
<path d="M403.505 -136.96C400.09 -125.22 395.067 -107.772 390.084 -90.4036C384.981 -72.6334 380.963 -58.4414 378.07 -48.109C375.619 -39.2642 374.212 -34.1985 373.489 -31.2234C360.51 -34.3191 308.835 -49.6368 276.045 -59.5671C275.001 -59.8888 273.876 -59.728 272.992 -59.1249C272.107 -58.5218 271.505 -57.557 271.424 -56.4714C271.344 -55.6272 263.267 26.5095 258.807 50.069C254.909 70.7338 212.034 131.361 203.154 143.744C200.381 142.578 195.84 140.287 192.746 136.668C191.581 135.301 188.447 131.643 152.925 120.225C135.566 114.637 115.153 108.807 106.514 106.958C90.6819 103.58 24.8624 92.4439 22.0496 92.0017L20.8441 99.1178C21.5272 99.2384 89.3157 110.697 104.987 114.033C112.34 115.601 131.307 120.868 150.353 126.979C182.821 137.432 186.88 141.01 187.201 141.372C193.229 148.448 202.953 151.423 203.395 151.544C203.756 151.664 204.078 151.705 204.44 151.705C205.565 151.705 206.65 151.182 207.373 150.217C209.583 147.202 261.258 75.9201 265.879 51.3957C269.817 30.4093 276.407 -33.7964 278.135 -51.4057C286.332 -48.9533 305.258 -43.2443 324.104 -37.6962C338.731 -33.3944 350.424 -30.0173 358.902 -27.6452C363.966 -26.2381 367.903 -25.1928 370.636 -24.5093C375.177 -23.3836 377.065 -22.9011 378.713 -24.5093C379.396 -25.1928 379.798 -26.0773 379.838 -27.0422C380.722 -32.1079 397.719 -91.4087 410.939 -137H403.505V-136.96Z" fill="white"/>
<path d="M239.961 96.1025C195.358 77.2066 127.69 48.8226 124.114 47.9784C124.114 47.9784 124.235 48.0186 124.435 48.0186V43.9982C125.199 43.9982 126.244 43.9982 184.187 68.2813C212.637 80.2219 241.207 92.2831 241.488 92.4037L239.961 96.1025Z" fill="white"/>
<path d="M148.384 123.16C149.751 121.793 171.891 69.2865 171.891 69.2865L148.384 123.16Z" fill="#E3E8EC"/>
<path d="M59.1383 102.656L55.9237 100.284C57.0086 98.7157 67.4964 77.4076 73.8453 64.3011C74.0462 63.8589 74.448 63.4971 74.89 63.3362L176.191 21.685C176.633 21.4839 177.155 21.4839 177.597 21.6448L262.022 50.471L260.736 54.2904L177.035 25.7054L77.0599 66.7938C73.6443 73.8697 60.4644 100.846 59.1383 102.656Z" fill="white"/>
<path d="M178.843 24.0168L174.945 23.0921L178.12 9.94539C178.321 9.18151 178.924 8.57846 179.727 8.41764C209.422 3.27154 266.361 -6.69904 269.214 -7.38251L270.139 -3.48272C266.603 -2.63844 192.867 10.2268 181.696 12.1566L178.843 24.0168Z" fill="white"/>
<path d="M238.555 43.5559L234.657 42.591C235.099 40.7819 247.074 -0.507577 247.596 -2.27655L251.454 -1.15084C247.154 13.6844 238.917 42.1488 238.555 43.5559Z" fill="white"/>
<path d="M287.899 193.597C287.538 193.597 287.136 193.517 286.734 193.396L198.01 163.565C194.113 162.6 139.705 149.051 120.94 141.01C101.652 132.728 74.2471 108.646 73.0818 107.601L77.8635 102.173C78.1448 102.415 105.55 126.537 123.793 134.336C142.317 142.297 199.296 156.408 199.899 156.569C199.979 156.609 200.1 156.609 200.18 156.65L285.729 185.436L357.175 -6.25673L340.86 -12.4481C339.092 -13.1316 338.128 -15.0614 338.69 -16.9108L344.798 -36.6107L351.71 -34.4799L346.607 -18.0365L363.081 -11.7647C364.93 -11.041 365.894 -8.9906 365.171 -7.10102L291.234 191.225C290.752 192.672 289.386 193.597 287.899 193.597Z" fill="white"/>
<path d="M232.344 108.563L229.433 115.188L302.007 147.107L304.917 140.482L232.344 108.563Z" fill="white"/>
<path d="M247.837 177.797L241.207 174.942C248.44 158.017 312.089 9.26199 318.921 -0.306548C319.805 -1.51266 321.291 -2.07552 322.738 -1.71368L354.603 6.44772L352.835 13.4432L323.582 5.96527C314.942 22.1675 274.478 115.4 247.837 177.797Z" fill="white"/>
<path d="M165.091 150.019L135.603 195.428L141.668 199.37L171.156 153.962L165.091 150.019Z" fill="white"/>
<path d="M107.157 133.676L82.0322 173.054L88.1288 176.948L113.254 137.57L107.157 133.676Z" fill="white"/>
<path d="M-92.11 223.75L-97.2132 218.644C-97.4141 218.845 -97.4945 218.966 -97.4945 218.966C-97.1329 218.443 -95.847 215.95 -94.521 213.337C-89.699 204.01 -80.7784 186.682 -69.8487 170.641C-55.8651 150.096 -43.6495 138.839 -32.4384 136.186C-25.2055 134.457 -10.2575 137.151 13.2897 144.428C31.4523 150.016 54.5976 158.338 82.1631 169.113C126.123 186.28 167.512 204.452 172.816 206.784L279.823 215.267L279.26 222.463L171.65 213.94C171.249 213.9 170.847 213.82 170.485 213.659C170.043 213.458 126.244 194.12 79.5512 175.827C-1.8593 143.985 -24.4822 141.734 -30.7106 143.222C-39.8321 145.393 -51.2842 156.288 -63.8213 174.741C-74.4697 190.421 -83.3099 207.508 -88.0515 216.674C-90.9447 222.222 -91.3867 223.067 -92.11 223.75Z" fill="white"/>
<path d="M336.038 365.589L330.654 360.765C331.136 360.242 379.155 306.651 388.316 283.734C390.446 278.347 393.098 270.668 396.152 261.823C410.738 219.287 422.07 189.175 435.25 189.778C437.661 189.898 445.014 190.22 658.426 253.018C762.62 283.654 866.372 314.651 869.506 315.576L976.393 343.075L974.584 350.071L867.658 322.571C867.618 322.571 867.577 322.531 867.537 322.531C751.449 287.875 447.385 197.738 434.969 197.014C434.125 196.974 429.383 197.818 420.141 218.403C414.033 232.032 408.167 249.078 403.023 264.155C399.929 273.12 397.277 280.88 395.067 286.428C385.423 310.47 338.048 363.338 336.038 365.589Z" fill="white"/>
<path d="M349.54 380.827L346.807 377.892C347.209 377.49 388.115 338.934 401.456 322.933C413.39 308.58 432.156 261.823 435.772 252.616L408.769 236.495C406.158 235.61 379.235 226.765 351.589 218.524C297.784 202.522 289.386 203.206 288.1 203.769C287.297 204.171 284.002 207.709 275.804 235.449C270.581 253.099 264.875 275.412 260.254 293.343C252.016 325.506 250.409 330.934 248.922 332.14L246.431 329.004C246.27 329.125 246.19 329.285 246.19 329.285C247.435 327.356 251.976 309.585 256.396 292.378C261.017 274.327 266.763 251.893 272.027 234.123C280.265 206.302 283.841 201.356 286.453 200.15C288.341 199.306 293.364 197.014 352.754 214.704C381.807 223.348 409.975 232.675 410.256 232.756C410.377 232.796 410.537 232.876 410.658 232.957L439.349 250.043C440.192 250.526 440.554 251.571 440.192 252.496C439.308 254.787 418.212 309.143 404.59 325.506C391.049 341.708 351.228 379.219 349.54 380.827Z" fill="white"/>
<path d="M498.859 182.018C498.578 182.018 498.297 181.978 498.016 181.938C497.453 181.817 440.152 168.389 419.86 166.62C398.884 164.811 314.983 136.829 311.406 135.663L313.697 128.788C314.581 129.07 400.331 157.655 420.503 159.424C438.666 160.992 483.63 171.203 496.368 174.138L525.099 76.0005L426.57 51.5565L345.401 31.8566L347.089 24.8209L428.258 44.5208L530.483 69.8895C531.448 70.1307 532.251 70.7338 532.734 71.6183C533.216 72.4625 533.336 73.5078 533.055 74.4325L502.315 179.445C501.873 181.013 500.427 182.018 498.859 182.018Z" fill="white"/>
<path d="M359.425 217.237L356.09 215.026L356.049 215.066C357.456 212.533 368.305 176.47 374.815 154.318L378.672 155.443C374.654 169.233 361.273 214.463 359.425 217.237Z" fill="white"/>
<path d="M481.862 427.705L477.884 427.182C477.924 426.981 480.616 406.196 482.425 393.652C482.585 392.526 482.304 388.948 476.076 380.425C471.615 374.274 465.025 366.916 457.109 359.157C440.152 342.512 420.222 327.074 403.827 317.827C369.109 298.208 270.018 262.185 269.013 261.823L270.38 258.044C271.384 258.406 370.797 294.549 405.796 314.33C422.472 323.737 442.684 339.457 459.922 356.302C468.32 364.544 487.769 384.727 486.403 394.255C484.595 406.758 481.862 427.504 481.862 427.705Z" fill="white"/>
<path d="M464.905 551.533C454.337 550.367 422.03 561.584 377.587 577.545C359.063 584.219 341.543 590.49 331.498 593.305C314.259 598.169 292.56 593.908 275.161 590.49C264.151 588.319 255.432 586.631 250.288 587.837C247.797 588.4 242.01 589.767 161.926 664.425C124.636 699.202 88.2307 734.099 84.3329 737.838C80.4352 739.969 46.2396 757.819 18.1116 747.326C3.24393 741.818 -25.8083 724.37 -52.6103 701.775C-83.4305 675.803 -102.437 650.475 -106.214 630.534C-111.197 604.12 -120.801 584.741 -135.588 571.233C-149.29 558.729 -167.493 551.131 -190.96 548.196V555.473C-169.462 558.327 -152.866 565.283 -140.45 576.58C-126.868 588.963 -117.988 607.054 -113.286 631.86C-111.076 643.64 -104.366 656.706 -93.436 670.697C-84.1136 682.598 -71.9382 694.9 -57.2313 707.323C-28.5005 731.526 0.672215 748.572 15.6203 754.12C22.2504 756.573 29.6441 757.819 37.6003 757.819C46.0387 757.819 55.1602 756.412 64.6031 753.638C78.3055 749.618 87.9092 744.15 88.311 743.909C88.5521 743.748 88.7932 743.587 89.0343 743.386C89.396 743.024 127.128 706.841 166.025 670.536C236.264 605.004 249.565 595.757 252.016 594.873C255.713 594.069 264.513 595.797 273.835 597.606C291.074 600.984 314.621 605.607 333.507 600.3C343.794 597.405 361.434 591.093 380.079 584.379C411.462 573.122 454.457 557.684 464.181 558.769C480.255 560.538 580.551 573.524 581.556 573.645L582.48 566.448C581.355 566.328 481.018 553.342 464.905 551.533Z" fill="white"/>
<path d="M45.9006 754.415L4.55099 913.016L11.5496 914.843L52.8991 756.242L45.9006 754.415Z" fill="white"/>
<path d="M52.8698 930.053C21.0048 930.053 -42.886 892.221 -45.6184 890.573L-41.9216 884.341C-41.2787 884.743 24.4605 923.66 53.794 922.776C62.3128 922.535 82.0827 913.248 127.61 870.43C158.39 841.483 191.179 806.466 213.119 782.665C256.155 735.948 466.231 554.91 468.361 553.101L473.062 558.568C470.932 560.377 261.178 741.175 218.423 787.57C129.458 884.06 77.2206 929.329 53.9949 930.013C53.6333 930.053 53.2716 930.053 52.8698 930.053Z" fill="white"/>
<path d="M215.128 1021.32C212.356 1017.66 146.697 931.943 134.963 913.931C123.551 896.362 34.8678 808.155 33.9436 807.27L39.0468 802.124C42.7035 805.783 129.177 891.739 141.031 909.951C152.563 927.721 220.191 1016.01 220.874 1016.89L215.128 1021.32Z" fill="white"/>
<path d="M-45.2969 1069.16C-44.9755 1069 -44.654 1068.88 -44.3325 1068.72C-35.653 1064.74 -28.7416 1061.28 -23.7187 1058.46C-14.8383 1053.44 -12.9899 1050.91 -12.347 1048.94C-11.8648 1047.49 -10.6593 1043.27 -8.89123 1036.87C-0.251912 1006.16 22.7729 924.625 35.9127 907.82C51.8653 887.396 160.319 780.333 161.404 779.248L156.341 774.102C151.88 778.524 46.4406 882.612 30.2067 903.358C17.7902 919.238 -0.935026 981.996 -15.8429 1034.9C-17.4904 1040.77 -18.6959 1045.08 -19.178 1046.48C-19.7004 1047.29 -23.4374 1051.23 -48.4312 1062.61C-53.2933 1064.82 -58.3564 1067.03 -63.2587 1069.16H-45.2969Z" fill="white"/>
<path d="M80.335 745.087L74.4474 749.291L119.661 812.681L125.549 808.477L80.335 745.087Z" fill="white"/>
<path d="M198.613 994.902L193.148 990.158C194.555 988.509 228.268 949.592 247.837 941.189C265.397 933.671 292.842 917.187 295.936 915.338C305.58 905.81 488.412 665.873 558.41 573.765C558.893 573.162 559.536 572.68 560.299 572.479L746.587 519.048L748.596 526.003L563.433 579.113C556.16 588.681 495.725 668.164 435.29 747.286C305.218 917.469 301.642 920.163 300.276 921.168C300.195 921.248 300.075 921.288 299.994 921.369C298.749 922.133 269.697 939.702 250.69 947.863C232.648 955.582 198.975 994.5 198.613 994.902Z" fill="white"/>
<path d="M280.613 726.535L273.385 726.81L280.902 924.315L288.13 924.039L280.613 726.535Z" fill="white"/>
<path d="M232.657 170.856L213.468 209.398L219.942 212.625L239.131 174.083L232.657 170.856Z" fill="white"/>
<path d="M188.768 305.284L184.911 304.198C185.835 301.022 199.738 261.381 200.341 259.692C200.582 259.009 201.185 258.486 201.908 258.366C214.887 256.195 229.273 253.38 232.769 252.054V234.565L172.775 227.971C170.164 228.132 135.486 230.384 125.641 244.736C114.912 260.416 103.621 277.141 103.5 277.342L100.165 275.09C100.286 274.93 111.617 258.165 122.346 242.485C133.637 226.001 171.168 224.031 172.735 223.951C172.856 223.951 172.936 223.951 173.057 223.951L235.019 230.745C236.023 230.866 236.827 231.71 236.827 232.756V253.139C236.827 255.109 234.818 255.833 230.237 256.999C227.505 257.682 223.687 258.486 218.946 259.411C212.677 260.617 206.328 261.743 203.797 262.185C198.613 276.658 189.451 302.912 188.768 305.284Z" fill="white"/>
<path d="M158.43 293.624L154.613 292.338C155.216 290.529 158.028 274.005 159.796 263.311L133.878 237.339L136.731 234.484L163.413 261.18C163.855 261.622 164.096 262.306 163.976 262.909C163.493 265.803 159.395 290.81 158.43 293.624Z" fill="white"/>
<path d="M202.073 258.354L161.835 260.613L162.06 264.626L202.299 262.368L202.073 258.354Z" fill="white"/>
<path d="M217.78 315.455L213.802 314.852L221.035 267.773C221.115 267.21 221.437 266.688 221.919 266.406C222.401 266.085 223.004 266.004 223.526 266.165C224.973 266.567 259.249 275.975 262.865 277.101L261.66 280.92C258.646 279.955 232.407 272.759 224.611 270.628L217.78 315.455Z" fill="white"/>
<path d="M215.886 257.616L212.972 260.384L221.576 269.453L224.49 266.685L215.886 257.616Z" fill="white"/>
<path d="M268.21 257.36C266.562 257.039 246.752 255.793 234.657 255.109L234.898 251.089C249.887 251.933 268.049 253.059 269.375 253.501L268.089 257.32C268.129 257.36 268.17 257.36 268.21 257.36Z" fill="white"/>
<path d="M275.332 232.092L235.073 235.258L235.388 239.266L275.646 236.1L275.332 232.092Z" fill="white"/>
<path d="M60.4643 262.667L53.6332 260.336C64.6433 228.253 81.2388 179.284 81.9621 175.827C81.9621 175.867 81.922 176.068 81.922 176.35H89.1549C89.1549 177.314 89.1549 178.239 74.7292 220.855C67.6972 241.641 60.5447 262.466 60.4643 262.667Z" fill="white"/>
<path d="M-3.56733 145.13L-35.2744 235.238L-31.484 236.573L0.223122 146.465L-3.56733 145.13Z" fill="white"/>
<path d="M583.726 469.195C581.074 464.974 575.327 459.627 563.072 458.018C549.369 456.249 531.97 448.289 516.62 441.294C509.146 437.876 502.074 434.66 496.006 432.408C491.225 430.639 480.415 426.659 466.793 421.634C429.825 408.005 367.903 385.169 360.47 382.194C354.362 379.741 347.571 374.555 341.544 369.932C338.048 367.278 335.074 364.986 332.462 363.418C325.109 358.996 280.747 339.296 272.75 336.602C270.54 335.879 261.218 332.1 249.364 327.315C217.66 314.53 164.538 293.142 141.031 286.267C128.615 282.649 103.42 275.05 74.2873 266.205C26.0678 251.611 -33.9654 233.479 -74.6706 221.74C-114.05 210.402 -160.582 183.144 -191 163.565V172.208C-186.66 174.983 -181.999 177.877 -177.177 180.852C-128.475 210.523 -95.6461 223.267 -76.6798 228.735C-36.0147 240.515 23.9783 258.647 72.1978 273.201C101.371 282.005 126.565 289.644 139.022 293.263C162.207 300.017 215.088 321.325 246.672 334.07C259.57 339.256 268.089 342.673 270.46 343.477C278.818 346.292 322.416 365.831 328.765 369.65C330.975 370.977 333.989 373.268 337.164 375.721C343.512 380.586 350.745 386.134 357.777 388.948C365.332 391.963 424.883 413.915 464.302 428.468C477.964 433.494 488.733 437.474 493.515 439.243C499.301 441.374 506.253 444.55 513.647 447.927C529.479 455.164 547.4 463.325 562.147 465.255C569.461 466.18 574.725 468.793 577.417 472.773C578.1 473.778 578.542 474.783 578.823 475.668C569.3 477.236 542.538 481.457 526.344 481.819C519.112 481.98 506.494 480.894 491.868 479.648C466.151 477.437 434.165 474.703 414.234 477.316C385.704 481.095 304.897 479.326 295.614 479.125C289.627 475.909 252.78 456.611 225.053 454.681C214.124 453.918 200.18 444.349 184.75 427.021C172.775 413.553 164.176 400.125 164.096 400.004C164.016 399.883 163.935 399.803 163.895 399.682C163.734 399.481 148.384 380.224 131.588 360.845C96.87 320.842 89.838 319.435 87.186 318.913C81.1585 317.707 71.153 318.43 59.5803 319.234C44.0697 320.36 24.782 321.727 12.1244 318.269C5.85585 316.541 -6.07847 312.601 -19.8612 308.017C-37.0193 302.308 -58.3564 295.233 -75.8761 290.167C-103.602 282.166 -110.433 282.367 -113.728 283.815C-115.496 284.579 -123.453 286.026 -158.693 282.609C-171.471 281.362 -183.847 279.834 -190.96 278.95V286.227C-183.647 287.152 -171.752 288.599 -159.416 289.805C-122.689 293.383 -114.09 291.896 -110.835 290.448C-109.831 290.046 -104.486 289.403 -77.5638 297.203C-60.245 302.228 -39.1088 309.224 -22.1114 314.892C-8.20815 319.516 3.80651 323.496 10.2358 325.265C24.0587 329.044 43.2259 327.677 60.1027 326.471C70.711 325.707 80.7165 324.983 85.7796 326.029C87.4672 326.35 95.4235 330.25 126.123 365.589C142.076 383.963 156.702 402.255 158.149 404.065C160.68 408.045 194.514 459.828 224.611 461.918C252.619 463.888 292.601 485.719 293.003 485.92C293.525 486.201 294.088 486.362 294.65 486.362C298.307 486.443 384.579 488.573 415.279 484.513C434.446 481.98 465.99 484.674 491.345 486.845C505.168 488.051 517.223 489.056 524.938 489.056C525.501 489.056 526.063 489.056 526.586 489.056C546.958 488.614 582.159 482.462 583.645 482.221C585.293 481.94 586.538 480.533 586.619 478.844C586.579 478.321 586.699 473.939 583.726 469.195Z" fill="white"/>
<path d="M339.012 483.467L331.779 483.065L333.185 458.38C333.266 456.852 334.27 455.566 335.717 455.124L352.353 450.018L381.365 395.461L387.754 398.878L358.059 454.762C357.617 455.606 356.853 456.249 355.929 456.531L340.258 461.355L339.012 483.467Z" fill="white"/>
<path d="M252.378 467.466L246.069 463.928L258.285 442.218C258.887 441.173 259.932 440.489 261.138 440.369L288.984 438.077L346.365 379.661L351.509 384.727L293.204 444.108C292.601 444.711 291.797 445.113 290.913 445.193L263.669 447.445L252.378 467.466Z" fill="white"/>
<path d="M334.129 395.778L330.7 402.149L368.872 422.716L372.301 416.345L334.129 395.778Z" fill="white"/>
<path d="M314.615 420.912L310.596 426.929L351.76 454.449L355.778 448.431L314.615 420.912Z" fill="white"/>
<path d="M191.943 436.951L188.487 430.599C188.728 430.479 212.356 417.613 222.442 412.266C229.554 408.447 268.13 371.298 292.32 347.216L297.423 352.362C291.194 358.554 236.184 413.111 225.817 418.659C215.811 424.006 192.184 436.831 191.943 436.951Z" fill="white"/>
<path d="M321.814 406.477L261.459 384.083C261.298 384.043 261.178 383.963 261.017 383.842L212.918 350.835L162.529 403.261L159.636 400.486L211.19 346.814C211.873 346.091 212.958 346.01 213.762 346.533L263.066 380.344L323.22 402.657L321.814 406.477Z" fill="white"/>
<path d="M128.775 361.167L124.154 355.619C128.253 352.202 188.246 307.816 190.777 305.927L195.077 311.756C173.539 327.677 131.95 358.554 128.775 361.167Z" fill="white"/>
<path d="M177.236 385.33C172.856 381.912 135.888 335.115 131.668 329.768C131.468 329.527 127.168 323.978 124.556 316.098C121.02 305.444 122.306 295.675 128.253 287.915L131.427 290.368C126.244 297.122 125.199 305.284 128.333 314.731C130.704 321.968 134.803 327.275 134.843 327.315C151.237 348.061 176.713 379.822 179.727 382.194L177.236 385.33Z" fill="white"/>
<path d="M95.213 278.6L82.9847 321.393L89.9392 323.382L102.167 280.59L95.213 278.6Z" fill="white"/>
<path d="M-117.345 599.295L-120.801 592.943C-107.701 585.827 -101.031 582.49 -97.5347 580.962C-99.2223 577.183 -103.12 570.027 -106.616 563.996C-107.42 562.629 -107.219 560.86 -106.134 559.694L-88.7346 540.999L-102.075 508.515C-102.799 506.746 -102.035 504.735 -100.347 503.891C-99.6242 503.529 -82.9885 495.207 -77.2423 492.594C-75.5144 489.659 -68.7637 474.221 -42.3636 399.321C-27.3352 356.704 -12.9497 314.611 -11.9854 311.837L3.76633 248.918L10.7582 250.687L-4.99352 313.726C-5.03371 313.807 -5.0337 313.927 -5.07389 314.008C-5.23462 314.45 -20.705 359.72 -36.5371 404.628C-45.8595 431.001 -53.4541 452.149 -59.2002 467.386C-70.4916 497.539 -71.6569 498.021 -73.5455 498.866C-77.0012 500.353 -88.5739 506.062 -94.0789 508.836L-81.0999 540.356C-80.5775 541.683 -80.8186 543.17 -81.783 544.216L-98.9411 562.629C-97.8561 564.559 -96.2488 567.413 -94.7219 570.308C-88.9355 581.163 -88.815 582.932 -89.9401 584.902C-90.5428 585.947 -91.5876 586.631 -92.7529 586.792C-95.1237 587.515 -106.978 593.667 -117.345 599.295Z" fill="white"/>
<path d="M-33.0814 585.264L-35.4521 578.429C-35.2512 578.349 -16.8475 571.916 3.04303 563.071C35.7519 548.558 47.1236 539.029 50.941 533.602C59.0178 522.023 71.9165 507.308 84.5741 495.207C95.9056 484.352 112.742 470.039 128.534 463.727C154.492 453.355 177.718 425.775 177.919 425.493L183.464 430.117C182.46 431.323 158.872 459.345 131.186 470.441C116.479 476.351 100.406 490.021 89.5165 500.433C74.7694 514.545 62.9557 528.978 56.8077 537.743C50.499 546.748 33.3811 557.483 5.89602 569.705C-14.2356 578.67 -32.9206 585.224 -33.0814 585.264Z" fill="white"/>
<path d="M39.9711 402.658C26.6706 398.838 16.9865 399.924 5.73531 401.17C-1.33688 401.974 -9.29309 402.859 -19.2986 402.577C-32.5992 402.215 -42.8458 396.828 -53.7353 391.159C-63.2989 386.134 -73.1838 380.947 -85.5602 379.178C-103.04 376.646 -157.889 370.454 -191 366.796V370.856C-157.849 374.555 -103.482 380.666 -86.1227 383.199C-74.4697 384.887 -64.866 389.913 -55.6239 394.778C-44.8147 400.446 -33.6439 406.276 -19.4192 406.678C-9.17254 406.959 -1.01541 406.035 6.17732 405.231C17.4687 403.984 26.3491 402.979 38.8862 406.598C47.204 409.01 61.9913 421.594 81.6407 443.103C96.6289 459.506 109.206 475.346 109.327 475.507L112.461 473.014C110.371 470.321 61.5895 408.889 39.9711 402.658Z" fill="white"/>
<path d="M42.9447 404.989L37.0378 400.808C37.1583 400.607 50.7401 381.349 54.9192 370.374C59.5402 358.232 92.3696 332.622 96.1066 329.768L100.527 335.517C86.5431 346.332 64.6434 365.228 61.6699 372.987C57.1694 384.767 43.5072 404.145 42.9447 404.989Z" fill="white"/>
<path d="M39.5693 469.879L34.0642 460.31L-1.69852 457.094C-2.14053 457.053 -2.58254 456.933 -2.98437 456.732L-48.1097 434.338L-44.8951 427.865L-0.412666 449.978L36.5556 453.314C37.7209 453.435 38.7656 454.078 39.3684 455.124L45.7976 466.341L39.5693 469.879Z" fill="white"/>
<path d="M-56.1061 545.18L-59.9235 539.029C-57.7938 537.622 -33.242 517.4 -18.2538 505.017C-18.1333 504.936 -18.0529 504.856 -17.9324 504.776L152.885 393.571L156.823 399.642L-13.8337 510.726C-20.7854 516.515 -53.3335 543.452 -56.1061 545.18Z" fill="white"/>
<path d="M71.2333 429.755L67.0945 423.805L108.001 395.3L113.787 388.586L87.0253 368.283C86.1814 367.64 85.659 366.635 85.5787 365.589C85.5385 364.504 85.9403 363.499 86.7038 362.775L107.036 343.759L111.979 349.066L94.7806 365.147L121.221 385.209C122.025 385.812 122.547 386.737 122.627 387.702C122.748 388.707 122.426 389.672 121.783 390.436L113.184 400.406C112.983 400.647 112.742 400.848 112.501 401.009L71.2333 429.755Z" fill="white"/>
<path d="M-6.63005 405.049L-14.3254 444.876L-7.22412 446.25L0.471216 406.422L-6.63005 405.049Z" fill="white"/>
<path d="M65.2863 518.686C62.9959 516.837 36.7565 485.679 31.5327 479.487L34.5866 476.914C46.4807 491.066 66.0498 514.103 67.7776 515.59L65.2863 518.686Z" fill="white"/>
<path d="M13.8632 491.422L8.00964 495.673L42.8247 543.665L48.6783 539.414L13.8632 491.422Z" fill="white"/>
<path d="M-13.9141 632.905L-19.9415 628.885L6.61935 588.802L2.40015 569.021L9.47233 567.534L14.013 588.802C14.2139 589.767 14.013 590.732 13.4906 591.576L-13.9141 632.905Z" fill="white"/>
<path d="M47.555 538.409L43.9711 544.694L90.7759 571.409L94.3598 565.123L47.555 538.409Z" fill="white"/>
<path d="M36.5155 756.412L29.6442 754.12L62.6343 655.018C75.533 611.075 94.8208 544.658 95.9459 539.431C95.9861 537.461 97.071 535.612 119.493 517.239C131.508 507.349 143.964 497.499 147.581 494.765C149.027 493.639 151.077 493.8 152.363 495.086C156.943 499.71 171.65 512.133 179.205 508.595C181.093 507.71 186.92 503.208 200.622 480.452C208.337 467.627 214.767 455.325 214.807 455.164L221.236 458.501C221.156 458.621 214.646 471.165 206.81 484.191C190.496 511.289 184.308 514.183 182.259 515.148C170.967 520.455 155.537 507.911 149.55 502.363C137.294 511.932 106.876 536.577 103.018 541.039C102.335 544.095 99.3213 555.03 86.3422 599.737C78.0645 628.202 69.7065 656.787 69.6261 657.068C69.6261 657.108 69.5859 657.148 69.5859 657.189L36.5155 756.412ZM103.179 539.994C103.179 540.115 103.139 540.235 103.098 540.477C103.139 540.356 103.139 540.195 103.179 539.994Z" fill="white"/>
<path d="M-15.4799 647.374L-18.3369 654.022L54.3137 685.275L57.1707 678.627L-15.4799 647.374Z" fill="white"/>
<path d="M146.858 499.79C137.776 487.448 127.369 473.778 125.721 472.291C125.721 472.291 125.962 472.492 126.404 472.693L129.338 466.059C130.463 466.542 131.267 466.903 142.357 481.578C147.581 488.493 152.684 495.408 152.724 495.448L146.858 499.79Z" fill="white"/>
<path d="M217.057 617.548C216.535 616.945 163.815 558.166 155.577 550.568C148.947 544.457 118.167 536.697 110.532 535.17L111.939 528.054C112.341 528.134 150.916 536.416 160.48 545.221C168.998 553.06 220.272 610.271 222.442 612.723L217.057 617.548Z" fill="white"/>
<path d="M244.397 502.97L239.189 507.992L319.225 591.069L324.432 586.047L244.397 502.97Z" fill="white"/>
<path d="M244.261 591.938L242.653 566.81L210.869 534.486L216.012 529.421L248.721 562.709C249.324 563.312 249.685 564.157 249.766 565.001L251.453 591.495L244.261 591.938Z" fill="white"/>
<path d="M217.82 527.169C189.331 509.077 188.366 507.55 187.844 506.745L193.992 502.926C193.791 502.645 193.63 502.484 193.63 502.444C195.197 503.931 209.141 513.098 221.678 521.058L217.82 527.169Z" fill="white"/>
<path d="M156.341 546.387L149.952 543.05C152.523 538.105 165.502 513.339 166.869 511.248L172.896 515.269L169.882 513.259L172.896 515.269C171.892 516.797 162.207 535.17 156.341 546.387Z" fill="white"/>
<path d="M329.805 436.822L291.648 478.562L296.985 483.446L335.143 441.706L329.805 436.822Z" fill="white"/>
<path d="M159.917 668.954L156.725 671.396L232.009 769.881L235.2 767.438L159.917 668.954Z" fill="white"/>
<path d="M467.356 698.478L364.247 645.489C363.443 645.087 362.8 644.364 362.519 643.519L344.196 593.184L350.987 590.691L368.828 639.7L470.651 692.045L467.356 698.478Z" fill="white"/>
<path d="M445.296 867.777C425.124 843.775 391.893 804.697 388.678 802.044C387.633 801.199 385.383 799.43 349.701 744.23C332.221 717.173 315.063 690.236 314.862 689.955C314.46 689.352 314.259 688.588 314.299 687.864C314.38 685.854 322.216 486.603 322.296 483.95L324.988 484.03H329.529C329.529 485.076 323.019 650.635 321.573 687.02C348.375 729.114 389.12 792.234 393.299 796.455C398.322 800.677 442.081 852.66 450.841 863.113L445.296 867.777ZM393.178 796.415L393.219 796.455C393.219 796.455 393.219 796.415 393.178 796.415Z" fill="white"/>
<path d="M110.682 717.753L105.402 722.699L189.444 812.507L194.725 807.56L110.682 717.753Z" fill="white"/>
<path d="M24.34 843.293C17.6294 841.966 -5.67664 827.211 -13.3114 822.347C-28.4603 812.738 -42.5645 803.29 -42.7253 803.169L-40.475 799.832C-24.9242 810.285 17.1071 837.704 25.1436 839.313L24.34 843.293Z" fill="white"/>
<path d="M18.3126 -136.96H10.4367L76.7787 18.1873C76.7787 18.2275 76.8188 18.2677 76.859 18.3079L96.3076 59.0747L102.817 55.9388L83.4089 15.2524L18.3126 -136.96Z" fill="white"/>
<path d="M184.388 -136.96L169.842 -91.3684C162.328 -88.0315 127.489 -72.4726 92.9321 -56.9941C70.1083 -46.7823 51.8653 -38.5807 38.7255 -32.6305C14.455 -21.6548 13.1692 -20.9311 12.5262 -20.2879C10.3965 -18.5591 -14.5972 -1.31161 -29.9872 9.26202L-25.8886 15.2524C-11.1817 5.16122 13.0084 -11.4832 17.0669 -14.6191C22.0897 -17.353 113.626 -58.361 174.302 -85.3781C175.227 -85.7801 175.95 -86.5842 176.271 -87.5893L191.983 -136.96H184.388ZM17.1071 -14.6995C17.2678 -14.8201 17.3883 -14.9005 17.4687 -14.9809C17.308 -14.8603 17.1874 -14.7397 17.1071 -14.6995Z" fill="white"/>
<path d="M30.2469 152.951C30.2871 152.87 30.2871 152.79 30.2871 152.75L23.2149 151.222C23.6569 149.172 35.8725 122.195 46.079 99.962L52.669 102.977C44.4315 120.989 31.0506 150.458 30.2469 152.951Z" fill="white"/>
<path d="M311.085 25.0621L287.136 17.946C285.408 17.4233 284.323 15.6946 284.604 13.9256L294.69 -49.7574L301.843 -48.6317L292.279 11.9154L313.215 18.1068L311.085 25.0621Z" fill="white"/>
<path d="M309.036 355.579L305.459 353.769C305.781 353.166 335.838 292.7 339.374 285.342L342.99 287.071C339.414 294.469 309.357 354.935 309.036 355.579Z" fill="white"/>
<path d="M342.387 287.714L338.57 286.428C346.888 261.461 359.385 223.509 359.867 221.217V221.257L363.845 221.82C363.483 224.273 345.923 277.141 342.387 287.714Z" fill="white"/>
<path d="M254.668 843.092C253.664 843.092 252.619 842.649 251.936 841.845L209.101 791.751L214.606 787.048L255.231 834.568L276.809 818.407L281.149 824.196L256.838 842.368C256.195 842.891 255.432 843.092 254.668 843.092Z" fill="white"/>
<path d="M372.674 771.307L278.802 793.047L280.433 800.097L374.305 778.357L372.674 771.307Z" fill="white"/>
<path d="M258.686 739.486L220.593 701.453C219.83 700.689 219.789 699.443 220.553 698.639L239.037 679.14C232.768 672.185 204.721 641.107 200.783 637.127L203.636 634.273C208.136 638.775 241.85 676.205 243.256 677.813C243.939 678.577 243.939 679.783 243.216 680.547L224.772 699.966L261.499 736.632L258.686 739.486Z" fill="white"/>
<path d="M234.521 710.136L204.841 730.808L207.136 734.108L236.817 713.436L234.521 710.136Z" fill="white"/>
<path d="M370.636 585.384L363.845 582.892L386.629 521.179L383.093 485.799L390.285 485.076L393.902 521.299C393.942 521.862 393.902 522.385 393.701 522.908L370.636 585.384Z" fill="white"/>
<path d="M419.686 669.509L357.691 751.188L360.891 753.619L422.887 671.94L419.686 669.509Z" fill="white"/>
<path d="M125.561 614.894C125.32 614.894 125.078 614.854 124.837 614.814L81.1184 605.728L82.6052 598.652L124.556 607.376L175.629 563.554L238.957 503.208L261.097 464.933L267.366 468.552L244.984 507.268C244.823 507.55 244.582 507.831 244.341 508.072L180.571 568.861C180.531 568.901 180.491 568.941 180.45 568.981L127.891 614.05C127.248 614.613 126.404 614.894 125.561 614.894Z" fill="white"/>
<path d="M413.109 157.574L409.131 157.132C409.292 155.645 410.538 138.558 411.261 128.386L345.803 113.832C345.281 113.712 344.798 113.39 344.517 112.908C344.236 112.425 344.155 111.862 344.276 111.34L351.187 84.8454L327.479 79.8601L328.323 75.9201L354.081 81.3476C354.603 81.4682 355.085 81.7898 355.366 82.2723C355.648 82.7547 355.728 83.3176 355.608 83.8403L348.656 110.335L413.752 124.808C414.717 125.009 415.4 125.934 415.319 126.899C415.319 128.105 413.35 155.524 413.109 157.574Z" fill="white"/>
<path d="M299.994 1069.16C334.029 1046.08 382.409 1013.56 419.458 988.751C419.538 988.71 419.619 988.63 419.659 988.59L598.714 848.238C598.794 848.157 598.915 848.077 598.995 847.997L719.062 731.847C719.263 731.646 719.423 731.445 719.544 731.244L829.444 565.282L823.416 561.302L713.757 726.943L594.133 842.69L415.319 982.841C412.948 984.449 374.252 1010.34 335.717 1036.27C314.46 1050.58 298.749 1061.24 287.096 1069.16H299.994Z" fill="white"/>
<path d="M427.374 1069.16L86.744 679.864L74.6489 690.437L405.997 1069.16H427.374Z" fill="white"/>
<path d="M149.148 1069.16C193.63 1043.91 258.043 1007.12 284.403 992.047L284.765 991.846L489.095 846.027L489.336 845.826L489.577 845.625C495.404 840.72 632.427 725.294 656.698 691.845C680.365 659.199 735.376 584.661 735.938 583.897L736.099 583.656C779.858 519.933 866.291 395.582 880.436 380.907C897.875 362.775 1037.99 201.96 1062.14 167.103C1085.61 133.211 1121.73 68.0804 1134.95 31.736C1145.48 2.70878 1170.88 -99.8917 1179.92 -136.96H1163.36C1153.68 -97.399 1129.65 -0.748768 1119.85 26.2281C1107.27 60.8839 1071.38 125.532 1048.88 157.976C1025.01 192.431 886.142 351.8 868.823 369.771C850.339 388.948 729.107 565.403 722.919 574.449C720.468 577.786 666.984 650.274 643.678 682.397C621.015 713.635 486.121 827.533 479.491 833.121L276.086 978.257C223.687 1008.17 151.278 1049.46 116.56 1069.12H149.148V1069.16Z" fill="white"/>
<path d="M212.074 -136.959C209.663 -131.572 206.971 -125.541 203.998 -118.747C193.831 -95.5489 184.067 -72.6728 180.691 -64.7124L14.5755 8.01651L-36.6576 62.9753L-97.0926 99.4804L-166.81 179.728L-191 195.005V214.021L-156.242 192.07L-86.6451 111.944L-26.4512 75.5591L24.0587 21.4446L192.987 -52.5306L194.233 -55.4655C206.288 -83.8897 219.468 -114.244 229.674 -136.959H212.074Z" fill="white"/>
</g>
<path d="M49 542.5L78.255 559.365C84.9964 563.251 93.5969 559.792 95.7705 552.32L98.4815 543.001C99.1455 540.719 100.473 538.685 102.294 537.157L140.543 505.09C145.324 501.082 146.236 494.079 142.642 488.98L134.305 477.153C130.529 471.797 131.749 464.403 137.044 460.543L173.733 433.797C178.04 430.658 183.902 430.735 188.124 433.988L215.75 455.267C217.23 456.407 218.954 457.185 220.787 457.541L242.933 461.838C248.04 462.829 253.205 460.415 255.721 455.862L258.904 450.102C260.839 446.601 264.391 444.294 268.377 443.95L286.56 442.383C289.424 442.136 292.105 440.869 294.114 438.812L312 420.5" stroke="#FFD337" stroke-width="5" stroke-linecap="round"/>
<circle cx="49" cy="543" r="4" fill="white"/>
<circle opacity="0.15" cx="312" cy="420" r="24" fill="#051F32"/>
<circle cx="312" cy="420" r="8" fill="#051F32"/>
<circle cx="312" cy="420" r="4" fill="white"/>
<defs>
<clipPath id="clip0_4_223">
<rect width="375" height="812" fill="white"/>
</clipPath>
</defs>
</svg>
